<?xml version="1.0" encoding="UTF-8" standalone="no"?>
<!-- Created with Inkscape (http://www.inkscape.org/) -->

<svg
   width="38"
   height="42"
   viewBox="0 0 38 42"
   version="1.1"
   id="svg5"
   inkscape:version="1.2.2 (b0a8486541, 2022-12-01)"
   sodipodi:docname="mob.svg"
   inkscape:export-filename="mob.png"
   inkscape:export-xdpi="96"
   inkscape:export-ydpi="96"
   xmlns:inkscape="http://www.inkscape.org/namespaces/inkscape"
   xmlns:sodipodi="http://sodipodi.sourceforge.net/DTD/sodipodi-0.dtd"
   xmlns="http://www.w3.org/2000/svg"
   xmlns:svg="http://www.w3.org/2000/svg">
  <sodipodi:namedview
     id="namedview7"
     pagecolor="#ffffff"
     bordercolor="#000000"
     borderopacity="0.25"
     inkscape:showpageshadow="2"
     inkscape:pageopacity="0.0"
     inkscape:pagecheckerboard="0"
     inkscape:deskcolor="#d1d1d1"
     inkscape:document-units="px"
     showgrid="false"
     inkscape:zoom="11.313709"
     inkscape:cx="12.81631"
     inkscape:cy="26.16295"
     inkscape:window-width="1920"
     inkscape:window-height="1023"
     inkscape:window-x="0"
     inkscape:window-y="0"
     inkscape:window-maximized="1"
     inkscape:current-layer="layer1" />
  <defs
     id="defs2" />
  <g
     inkscape:label="Layer 1"
     inkscape:groupmode="layer"
     id="layer1"
     transform="translate(-2.3805676,-0.08007812)">
    <path
       style="color:#000000;fill:#6f8a91;stroke-width:2;stroke-miterlimit:3;stroke-dashoffset:1;-inkscape-stroke:none;stroke:none"
       d="M 35.230365,20.373597 V 41.215734 H 7.5307647 V 20.373597 L 15.484402,11.739173 H 27.27673 Z"
       id="path1343" />
    <path
       style="fill:#53676c;stroke:none;stroke-width:2;stroke-miterlimit:3;stroke-dasharray:none;stroke-dashoffset:1"
       d="m 35.519638,20.373597 -3.586739,12.717717 -24.6914055,8.12442 v 0 H 35.519638 Z"
       id="path1285" />
    <path
       style="color:#000000;fill:none;stroke-width:2;stroke-miterlimit:3;stroke-dashoffset:1;-inkscape-stroke:none;stroke:#000000"
       d="M 35.230365,20.373597 V 41.215734 H 7.5307647 V 20.373597 L 15.484402,11.739173 H 27.27673 Z"
       id="path1039" />
    <path
       style="color:#000000;fill:#ffccaa;stroke-width:2;stroke-miterlimit:3;stroke-dashoffset:1;-inkscape-stroke:none"
       d="M 29.207932,9.2895166 A 8.2735045,8.2102513 0 0 1 20.934428,17.499768 8.2735045,8.2102513 0 0 1 12.660923,9.2895166 8.2735045,8.2102513 0 0 1 20.934428,1.0792654 8.2735045,8.2102513 0 0 1 29.207932,9.2895166 Z"
       id="path443" />
    <path
       id="ellipse436"
       style="fill:#deaa87;stroke:none;stroke-width:2;stroke-miterlimit:3;stroke-dasharray:none;stroke-dashoffset:1"
       d="m 22.521481,1.2317365 a 8.2735045,8.1432057 0 0 1 3.532255,6.6698278 8.2735045,8.1432057 0 0 1 -8.273216,8.1440467 8.2735045,8.1432057 0 0 1 -0.779624,-0.05424 8.2735045,8.1432057 0 0 0 4.74096,1.489718 8.2735045,8.1432057 0 0 0 8.275131,-8.1421099 8.2735045,8.1432057 0 0 0 -7.495506,-8.1072406 z" />
    <path
       style="color:#000000;fill:#000000;stroke-width:0.999997;stroke-miterlimit:3;stroke-dashoffset:1;-inkscape-stroke:none"
       d="m 20.935311,0.08007812 c -5.085181,0 -9.255887,4.11946368 -9.255887,9.20916668 0,5.0897032 4.170706,9.2111202 9.255887,9.2111202 5.085181,0 9.253972,-4.121417 9.253972,-9.2111202 0,-5.089703 -4.168791,-9.20916668 -9.253972,-9.20916668 z m 0,2.00003958 c 4.05347,0 7.292459,3.2300462 7.292459,7.2091271 0,3.9790812 -3.238989,7.2110802 -7.292459,7.2110802 -4.053471,0 -7.294375,-3.231999 -7.294375,-7.2110802 0,-3.9790809 3.240904,-7.2091271 7.294375,-7.2091271 z"
       id="path445" />
    <ellipse
       style="fill:#ffccaa;stroke:#000000;stroke-width:2;stroke-miterlimit:3;stroke-dasharray:none;stroke-dashoffset:1"
       id="path1522"
       cx="8.3384914"
       cy="32.120514"
       rx="4.9579239"
       ry="4.9104314" />
    <ellipse
       style="fill:#ffccaa;stroke:#000000;stroke-width:2;stroke-miterlimit:3;stroke-dasharray:none;stroke-dashoffset:1"
       id="path1522-3"
       cx="34.422646"
       cy="32.120514"
       rx="4.9579239"
       ry="4.9104314" />
  </g>
</svg>
